<?xml version="1.0" encoding="UTF-8" standalone="no"?>
<svg
   viewBox="0 0 516.25 356.52"
   version="1.1"
   id="volume-icon"
   xmlns="http://www.w3.org/2000/svg"
 >
  <style type="text/css">
    path {
      fill: #e1e1e8;
    }

    #muted {
      display: none;
    }

    .muted #muted {
      display: block;
    }

    .muted #above_0 {
      display: none;
    }
    .muted #above_50 {
      display: none;
    }

    #above_50 {
      display: none;
    }
    .above_50 #above_50 {
      display: block;
    }
  </style>
  <g id="body">
    <path
       d="M 57.873894,99.41 H 173.26879 L 268.71934,4.38 c 7.08213,-5.81 18.52063,-5.86 25.59058,-0.04 3.60191,2.86 5.36636,6.68 5.36636,10.54 h 0.0608 v 326.69 c 0,8.22 -8.12862,14.95 -18.19206,14.95 -5.08648,0 -9.67405,-1.73 -12.98391,-4.5 L 174.21789,273.03 H 57.873894 c -15.916538,0 -30.409349,-5.36 -40.850013,-13.95 C 6.5223732,250.5 0,238.59 0,225.51 v -78.54 c 0,-13.08 6.5223732,-24.98 16.963038,-33.56 10.501507,-8.64 24.994318,-14 40.910856,-14 z"
       id="volume-body"
    />
  </g>
  <g id="muted">
    <path
       d="m 478.87618,97.195272 -140.93651,140.936508 8.3812,8.3812 141.15707,-141.15706 z"
       id="mute_1"
       />
    <path
       d="M 346.57319,97.454368 487.51161,239.61438 478.90985,246.8928 338.192,105.83557 Z"
       id="mute_2"
    />
  </g>
  <g id="above_50">
    <path
       d="m 432.60614,20.48 c -4.06432,-6.93 -0.52324,-15.27 7.90959,-18.61 8.43285,-3.35 18.5693,-0.44 22.63362,6.49 27.68357,47.21 52.55621,118.63 53.09163,173.67 0.49892,52.88 -19.76182,121.56 -48.00515,166.45 -4.29553,6.84 -14.51715,9.53 -22.84048,6.01 -8.32333,-3.53 -11.59669,-11.93 -7.31334,-18.77 25.67577,-40.8 44.74398,-104.95 44.28157,-153.47 C 481.87683,131.3 458.16022,64.06 432.60614,20.48 Z"
       id="above_50_path"
    />
  </g>
  <g id="above_0">
    <path
       d="m 352.78009,74.74 c -3.60192,-7.12 0.49891,-15.28 9.16295,-18.23 8.65188,-2.96 18.58147,0.41 22.1712,7.53 15.79486,31.07 29.18032,76.2 29.89826,115.1 0.70579,38.32 -11.04909,82.69 -26.01647,113.18 -3.48022,7.14 -13.36113,10.61 -22.04951,7.75 -8.68839,-2.86 -12.91091,-10.98 -9.43068,-18.12 13.30029,-27.08 24.27637,-67.64 23.63144,-102.48 -0.65711,-35.39 -13.19078,-76.82 -27.36719,-104.73 z"
       id="above_0_path"
       />
  </g>
</svg>
